
      <svg data-logo="logo" xmlns="http://www.w3.org/2000/svg" viewBox="0 0 220 43">
        <g id="logogram" transform="translate(0, 1) rotate(0) "><path fill-rule="evenodd" clip-rule="evenodd" d="M0.603516 15.43V31.43H5.60352C6.12878 31.43 6.64893 31.5334 7.13428 31.7345C7.61951 31.9355 8.06055 32.2301 8.43188 32.6016C8.80334 32.973 9.09802 33.414 9.29907 33.8993C9.5 34.3846 9.60352 34.9047 9.60352 35.43V40.43H21.6035L36.6035 25.43V9.42999H31.6035C31.0782 9.42999 30.5581 9.32654 30.0728 9.12552C29.5875 8.9245 29.1465 8.62985 28.7751 8.25842C28.4037 7.88699 28.109 7.44601 27.908 6.96072C27.707 6.47543 27.6035 5.95529 27.6035 5.42999V0.429993H15.6035L0.603516 15.43ZM17.6035 30.43H10.6035V19.43L19.6035 10.43H26.6035V21.43L17.6035 30.43Z" fill="#101828"/></g>
        <g id="logotype" transform="translate(43, 8.5)"><path fill="#101828" d="M21.51 26.49L21.51 26.49Q18.08 26.49 15.45 25.93Q12.83 25.37 10.99 24.32Q9.15 23.27 8.19 21.78Q7.22 20.29 7.12 18.48L7.12 18.48L14.02 18.48Q14.23 19.21 14.82 19.82Q15.42 20.43 16.34 20.87Q17.27 21.31 18.57 21.55Q19.86 21.80 21.51 21.80L21.51 21.80Q23.64 21.80 25.16 21.43Q26.69 21.06 27.53 20.36Q28.37 19.66 28.37 18.72L28.37 18.72Q28.37 18.13 28.09 17.70Q27.81 17.28 27.23 17.00Q26.65 16.73 25.74 16.62L25.74 16.62L17.06 15.53Q14.79 15.25 13 14.69Q11.21 14.13 10.03 13.26Q8.84 12.38 8.21 11.12Q7.58 9.86 7.58 8.22L7.58 8.22Q7.58 6.43 8.48 5.00Q9.39 3.56 11.14 2.57Q12.89 1.57 15.36 1.04Q17.83 0.52 20.98 0.52L20.98 0.52Q24.13 0.52 26.53 1.03Q28.93 1.53 30.59 2.50Q32.25 3.46 33.14 4.81Q34.04 6.15 34.14 7.80L34.14 7.80L27.21 7.80Q27.07 6.99 26.32 6.42Q25.57 5.84 24.20 5.52Q22.84 5.21 20.80 5.21L20.80 5.21Q18.81 5.21 17.38 5.52Q15.94 5.84 15.22 6.43Q14.51 7.03 14.51 7.87L14.51 7.87Q14.51 8.46 14.87 8.94Q15.24 9.41 15.91 9.71Q16.57 10.00 17.48 10.14L17.48 10.14L26.48 11.23Q29.35 11.58 31.31 12.49Q33.27 13.40 34.30 14.87Q35.33 16.34 35.33 18.44L35.33 18.44Q35.33 20.43 34.44 21.92Q33.55 23.41 31.78 24.44Q30.01 25.48 27.44 25.98Q24.87 26.49 21.51 26.49ZM49.40 26.49L49.40 26.49Q45.59 26.49 42.89 25.30Q40.20 24.11 38.78 21.96Q37.36 19.80 37.36 17.00L37.36 17.00Q37.36 15.29 37.87 13.84Q38.38 12.38 39.37 11.21Q40.37 10.04 41.84 9.22Q43.31 8.39 45.20 7.96Q47.09 7.52 49.37 7.52L49.37 7.52Q52.17 7.52 54.35 8.15Q56.54 8.78 58.05 10.13Q59.55 11.47 60.32 13.50Q61.09 15.53 61.06 18.34L61.06 18.34L41.46 18.34L41.46 15.11L54.58 15.11Q54.41 14.27 53.97 13.64Q53.53 13.01 52.85 12.58Q52.17 12.14 51.29 11.93Q50.42 11.72 49.33 11.72L49.33 11.72Q48.21 11.72 47.28 11.98Q46.36 12.24 45.66 12.70Q44.96 13.15 44.52 13.80Q44.08 14.45 43.84 15.25Q43.59 16.06 43.59 17.00L43.59 17.00Q43.59 18.54 44.24 19.73Q44.89 20.93 46.20 21.61Q47.51 22.29 49.44 22.29L49.44 22.29Q51.12 22.29 52.32 21.89Q53.53 21.48 54.16 20.68L54.16 20.68L60.81 20.68Q60.39 22.25 59.10 23.59Q57.80 24.91 55.44 25.70Q53.08 26.49 49.40 26.49ZM70.12 26L63.72 26L63.72 8.01L70.12 8.01L70.12 13.05L69.53 12.03Q70.26 10.63 71.50 9.62Q72.75 8.60 74.46 8.06Q76.18 7.52 78.28 7.52L78.28 7.52Q80.38 7.52 81.93 8.08Q83.49 8.64 84.56 9.76Q85.63 10.88 86.17 12.47Q86.71 14.06 86.71 16.06L86.71 16.06L86.71 26L80.27 26L80.27 17.39Q80.27 15.78 79.75 14.64Q79.22 13.50 78.17 12.89Q77.12 12.28 75.51 12.28L75.51 12.28Q73.80 12.28 72.59 12.93Q71.38 13.57 70.75 14.75Q70.12 15.92 70.12 17.49L70.12 17.49L70.12 26ZM105.37 26L98.96 26Q96.09 26 94.41 24.46Q92.73 22.92 92.73 20.16L92.73 20.16L92.73 3.14L99.14 3.14L99.14 19.11Q99.14 20.40 99.82 21.10Q100.50 21.80 101.83 21.80L101.83 21.80L105.37 21.80L105.37 26ZM93.29 12.14L88.57 12.14L88.57 8.01L93.29 8.01L93.29 12.14ZM105.37 12.14L98.58 12.14L98.58 8.01L105.37 8.01L105.37 12.14ZM114.78 26L108.38 26L108.38 8.01L114.78 8.01L114.78 26ZM114.82 5.84L108.34 5.84L108.34 1.01L114.82 1.01L114.82 5.84ZM124.55 26L118.14 26L118.14 8.01L124.55 8.01L124.55 13.05L123.95 12.03Q124.69 10.63 125.93 9.62Q127.17 8.60 128.89 8.06Q130.60 7.52 132.70 7.52L132.70 7.52Q134.80 7.52 136.36 8.08Q137.92 8.64 138.98 9.76Q140.05 10.88 140.59 12.47Q141.14 14.06 141.14 16.06L141.14 16.06L141.14 26L134.70 26L134.70 17.39Q134.70 15.78 134.17 14.64Q133.65 13.50 132.60 12.89Q131.55 12.28 129.94 12.28L129.94 12.28Q128.22 12.28 127.01 12.93Q125.81 13.57 125.18 14.75Q124.55 15.92 124.55 17.49L124.55 17.49L124.55 26ZM155.59 26.49L155.59 26.49Q151.78 26.49 149.08 25.30Q146.39 24.11 144.97 21.96Q143.55 19.80 143.55 17.00L143.55 17.00Q143.55 15.29 144.06 13.84Q144.57 12.38 145.56 11.21Q146.56 10.04 148.03 9.22Q149.50 8.39 151.39 7.96Q153.28 7.52 155.56 7.52L155.56 7.52Q158.36 7.52 160.54 8.15Q162.73 8.78 164.24 10.13Q165.74 11.47 166.51 13.50Q167.28 15.53 167.25 18.34L167.25 18.34L147.65 18.34L147.65 15.11L160.77 15.11Q160.60 14.27 160.16 13.64Q159.72 13.01 159.04 12.58Q158.36 12.14 157.48 11.93Q156.61 11.72 155.52 11.72L155.52 11.72Q154.40 11.72 153.47 11.98Q152.55 12.24 151.85 12.70Q151.15 13.15 150.71 13.80Q150.27 14.45 150.03 15.25Q149.78 16.06 149.78 17.00L149.78 17.00Q149.78 18.54 150.43 19.73Q151.08 20.93 152.39 21.61Q153.70 22.29 155.63 22.29L155.63 22.29Q157.31 22.29 158.51 21.89Q159.72 21.48 160.35 20.68L160.35 20.68L167.00 20.68Q166.58 22.25 165.29 23.59Q163.99 24.91 161.63 25.70Q159.27 26.49 155.59 26.49ZM176.28 26L169.87 26L169.87 1.01L176.28 1.01L176.28 26Z"/></g>
        
      </svg>
    
    